<?xml version="1.0" standalone="no"?><!DOCTYPE svg PUBLIC "-//W3C//DTD SVG 1.1//EN" "http://www.w3.org/Graphics/SVG/1.1/DTD/svg11.dtd"><svg t="1643040846406" class="icon" viewBox="0 0 1024 1024" version="1.1" xmlns="http://www.w3.org/2000/svg" p-id="4249" xmlns:xlink="http://www.w3.org/1999/xlink" width="32" height="32"><defs><style type="text/css"></style></defs><path d="M512 0a512 512 0 1 0 512 512A512 512 0 0 0 512 0z m0 921.6a409.6 409.6 0 1 1 409.6-409.6 409.6 409.6 0 0 1-409.6 409.6z" fill="#000000" p-id="4250"></path><path d="M348.672 628.736C409.6 563.2 475.648 493.568 481.28 426.496A109.056 109.056 0 0 0 367.616 296.96 169.984 169.984 0 0 0 235.52 358.4l45.056 51.2a105.984 105.984 0 0 1 68.096-35.84c30.72 0 48.128 19.968 44.544 58.368-5.12 56.32-77.824 124.928-178.176 218.112l-4.608 56.32h264.192l7.168-82.944H409.6a522.24 522.24 0 0 0-60.928 5.12zM771.584 538.112L791.552 307.2h-112.64l-153.6 239.616-5.12 67.584h160.256l-8.192 93.696h84.992l7.68-93.696h41.984l6.656-75.264z m-79.872-58.88l-5.12 58.88H614.4l51.2-80.896c12.8-23.552 25.088-46.592 36.864-69.632-3.072 25.6-8.704 65.536-10.752 91.648z" fill="#000000" p-id="4251"></path></svg>