<?xml version="1.0" standalone="no"?><!DOCTYPE svg PUBLIC "-//W3C//DTD SVG 1.1//EN"
        "http://www.w3.org/Graphics/SVG/1.1/DTD/svg11.dtd">
<svg t="1642505727064" class="icon" viewBox="0 0 1024 1024" version="1.1" xmlns="http://www.w3.org/2000/svg"
     p-id="25027" xmlns:xlink="http://www.w3.org/1999/xlink" width="32" height="32">
    <defs>
        <style type="text/css"></style>
    </defs>
    <path d="M513.024 515.84m-450.816 0a450.816 450.816 0 1 0 901.632 0 450.816 450.816 0 1 0-901.632 0Z" fill="#59ADF8"
          p-id="25028"></path>
    <path d="M843.2128 497.2544c5.6832 166.9632-116.992 320.256-294.0928 339.1488-192.1536 20.5312-346.1632-120.2688-364.4416-291.9936-20.1728-189.7472 118.6304-345.5488 292.096-364.6464 187.8016-20.6848 359.3728 122.0096 366.4384 317.4912z m-325.376 228.4032c4.8128-0.3072 15.1552-0.0512 25.1904-1.6384 128.8704-20.3776 210.944-135.8848 186.0608-264.0896-10.1376-52.4288-38.0928-95.6416-80.1792-128.9728-14.4384-11.4176-32.0512-10.1376-42.0864 1.792-11.6224 13.824-9.5744 31.6416 5.2224 44.6976 1.792 1.5872 3.8912 2.8672 5.7344 4.352 50.0224 40.2432 69.9392 111.6672 48.7936 174.7456-21.7088 64.6656-80.6912 108.8-147.6096 110.4896-68.608 1.6896-130.8672-37.4272-154.88-97.4336-28.2112-70.3488-12.6976-134.656 45.6704-189.44 16.5888-15.5648 19.3024-32 7.5776-45.7216-11.52-13.4144-29.1328-12.7488-46.1824 1.7408-73.0112 62.0544-97.3312 156.2624-64.0512 248.4224 29.9008 82.8416 114.3296 140.8512 210.7392 141.056z m24.2688-320.3584c0-29.44 0.2048-58.88-0.0512-88.32-0.2048-22.4256-11.9296-36.096-29.7984-35.5328-17.408 0.5632-28.3136 13.568-28.416 35.1232-0.2048 58.88-0.2048 117.76 0 176.6912 0.1024 22.528 11.7248 35.9424 29.7984 35.4304 17.5616-0.5632 28.2112-13.2608 28.416-34.9696 0.256-29.5424 0.0512-58.9824 0.0512-88.4224z"
          fill="#FFFFFF" p-id="25029"></path>
</svg>