<?xml version="1.0" standalone="no"?><!DOCTYPE svg PUBLIC "-//W3C//DTD SVG 1.1//EN" "http://www.w3.org/Graphics/SVG/1.1/DTD/svg11.dtd"><svg t="1643041226617" class="icon" viewBox="0 0 1024 1024" version="1.1" xmlns="http://www.w3.org/2000/svg" p-id="1352" xmlns:xlink="http://www.w3.org/1999/xlink" width="32" height="32"><defs><style type="text/css"></style></defs><path d="M511.667 56.667c251.3 0 455 203.7 455 455s-203.7 455-455 455-455-203.7-455-455 203.7-455 455-455z m181.4 270c-15-15-39.3-15-54.3 0l-126.8 126.8-126.7-126.8c-14.8-14.8-38.8-15-53.9-0.4l-0.5 0.4c-15 15-15 39.3 0 54.3l126.8 126.8-126.7 126.7c-14.8 14.8-15 38.8-0.4 53.9l0.4 0.5c15 15 39.3 15 54.3 0l126.7-126.7 126.7 126.6c14.8 14.8 38.8 15 53.9 0.4l0.5-0.4c15-15 15-39.3 0-54.3l-126.8-126.7 126.7-126.7c14.8-14.8 15-38.8 0.4-53.9l-0.3-0.5z" fill="#000000" p-id="1353"></path></svg>