<?xml version="1.0" standalone="no"?><!DOCTYPE svg PUBLIC "-//W3C//DTD SVG 1.1//EN" "http://www.w3.org/Graphics/SVG/1.1/DTD/svg11.dtd"><svg t="1643040861432" class="icon" viewBox="0 0 1024 1024" version="1.1" xmlns="http://www.w3.org/2000/svg" p-id="4550" xmlns:xlink="http://www.w3.org/1999/xlink" width="32" height="32"><defs><style type="text/css"></style></defs><path d="M521.780736 312.32a213.504 213.504 0 0 0-159.232 58.88 217.088 217.088 0 0 0-67.584 157.184 543.744 543.744 0 0 1-93.696 304.64 51.2 51.2 0 0 0 84.992 57.344 646.656 646.656 0 0 0 111.104-361.984 113.152 113.152 0 0 1 35.84-82.944 114.688 114.688 0 0 1 83.968-30.72 118.784 118.784 0 0 1 109.056 119.808 878.592 878.592 0 0 1-99.84 399.36 51.2 51.2 0 0 0 91.136 47.104 982.528 982.528 0 0 0 111.104-446.976 221.184 221.184 0 0 0-206.848-221.696z" fill="#000000" p-id="4551"></path><path d="M512.052736 477.184a51.2 51.2 0 0 0-51.2 51.2 665.6 665.6 0 0 1-107.52 363.008 51.2 51.2 0 0 0 87.04 55.808 768 768 0 0 0 122.88-418.816 51.2 51.2 0 0 0-51.2-51.2z" fill="#000000" p-id="4552"></path><path d="M870.452736 168.96a501.76 501.76 0 0 0-358.4-153.6h-4.096A507.392 507.392 0 0 0 0.052736 501.248a51.2 51.2 0 1 0 102.4 4.608A405.504 405.504 0 0 1 508.468736 117.76H512.052736a399.872 399.872 0 0 1 285.696 122.368A434.688 434.688 0 0 1 921.652736 550.4a1288.192 1288.192 0 0 1-17.408 177.664 51.2 51.2 0 0 0 41.984 58.88h8.704a51.2 51.2 0 0 0 51.2-43.008 1397.76 1397.76 0 0 0 17.92-191.488 538.112 538.112 0 0 0-153.6-383.488z" fill="#000000" p-id="4553"></path><path d="M327.220736 340.48a259.584 259.584 0 0 1 307.2-40.96 51.2 51.2 0 1 0 51.2-88.576 344.576 344.576 0 0 0-171.52-46.592A358.4 358.4 0 0 0 256.052736 267.264a363.52 363.52 0 0 0-109.568 261.12 385.536 385.536 0 0 1-59.904 204.8 51.2 51.2 0 1 0 86.528 54.784 487.936 487.936 0 0 0 75.776-261.632 261.632 261.632 0 0 1 78.336-185.856zM806.964736 324.096a51.2 51.2 0 0 0-83.968 58.368 268.8 268.8 0 0 1 48.64 161.28 1005.568 1005.568 0 0 1-59.904 331.776 51.2 51.2 0 1 0 96.256 34.816 1106.432 1106.432 0 0 0 66.048-364.544 370.688 370.688 0 0 0-67.072-221.696z" fill="#000000" p-id="4554"></path><path d="M919.604736 880.128m-51.2 0a51.2 51.2 0 1 0 102.4 0 51.2 51.2 0 1 0-102.4 0Z" fill="#000000" p-id="4555"></path><path d="M51.252736 884.736m-51.2 0a51.2 51.2 0 1 0 102.4 0 51.2 51.2 0 1 0-102.4 0Z" fill="#000000" p-id="4556"></path></svg>