<?xml version="1.0" standalone="no"?><!DOCTYPE svg PUBLIC "-//W3C//DTD SVG 1.1//EN" "http://www.w3.org/Graphics/SVG/1.1/DTD/svg11.dtd"><svg t="1643040727922" class="icon" viewBox="0 0 1024 1024" version="1.1" xmlns="http://www.w3.org/2000/svg" p-id="21160" xmlns:xlink="http://www.w3.org/1999/xlink" width="32" height="32"><defs><style type="text/css"></style></defs><path d="M512 511.5904m-420.9152 0a420.9152 420.9152 0 1 0 841.8304 0 420.9152 420.9152 0 1 0-841.8304 0Z" fill="#FF5D50" p-id="21161"></path><path d="M915.9168 159.488c-4.352-25.088-28.2112-41.8816-53.248-37.5808l-119.0912 20.736c-16.896 2.9184-30.72 14.9504-35.9936 31.232L642.2016 376.32c-33.7408-32.512-79.616-52.5312-130.2016-52.5312-103.7312 0-187.8528 84.0704-187.8528 187.8528 0 103.7312 84.0704 187.8528 187.8528 187.8528 103.7312 0 187.8528-84.0704 187.8528-187.8528 0-4.1984-0.2048-8.3456-0.4608-12.4928l87.3472-270.4384 91.648-16.0256c25.0368-4.3008 41.8816-28.16 37.5296-53.1968z" fill="#FFDF99" p-id="21162"></path></svg>