<?xml version="1.0" standalone="no"?><!DOCTYPE svg PUBLIC "-//W3C//DTD SVG 1.1//EN"
        "http://www.w3.org/Graphics/SVG/1.1/DTD/svg11.dtd">
<svg t="1642505859259" class="icon" viewBox="0 0 1024 1024" version="1.1" xmlns="http://www.w3.org/2000/svg" p-id="1020"
     xmlns:xlink="http://www.w3.org/1999/xlink" width="32" height="32">
    <defs>
        <style type="text/css"></style>
    </defs>
    <path d="M512 0a512 512 0 1 0 512 512 512 512 0 0 0-512-512z m0 960a448 448 0 1 1 448-448 448 448 0 0 1-448 448z"
          p-id="1021"></path>
    <path d="M776.32 684.8A291.2 291.2 0 0 0 627.2 536.32 188.16 188.16 0 0 0 704 384a192 192 0 0 0-384 0 188.16 188.16 0 0 0 76.8 152.32 291.2 291.2 0 0 0-149.12 148.48 316.16 316.16 0 0 0-14.72 43.52A31.36 31.36 0 0 0 256 768a32 32 0 0 0 39.04-23.04 291.84 291.84 0 0 1 11.52-33.28 224 224 0 0 1 410.88 0 291.84 291.84 0 0 1 11.52 33.28 32 32 0 0 0 39.04 23.04 31.36 31.36 0 0 0 23.04-38.4 316.16 316.16 0 0 0-14.72-44.8zM512 256a128 128 0 1 1-128 128 128 128 0 0 1 128-128z"
          p-id="1022"></path>
</svg>