<?xml version="1.0" standalone="no"?><!DOCTYPE svg PUBLIC "-//W3C//DTD SVG 1.1//EN" "http://www.w3.org/Graphics/SVG/1.1/DTD/svg11.dtd"><svg t="1643041253003" class="icon" viewBox="0 0 1024 1024" version="1.1" xmlns="http://www.w3.org/2000/svg" p-id="1985" xmlns:xlink="http://www.w3.org/1999/xlink" width="32" height="32"><defs><style type="text/css"></style></defs><path d="M512 57c251.3 0 455 203.7 455 455S763.3 967 512 967 57 763.3 57 512 260.7 57 512 57z m-54.8 301.4c-32.4 0-58.7 26.3-58.7 58.7V607c0 10.3 2.7 20.4 7.9 29.3 16.2 28.1 52.1 37.7 80.2 21.5l164.4-95c8.9-5.2 16.3-12.6 21.5-21.5 16.2-28.1 6.6-64-21.5-80.2l-164.4-94.9c-9-5.1-19.1-7.8-29.4-7.8z" fill="#000000" p-id="1986"></path></svg>