<?xml version="1.0" standalone="no"?><!DOCTYPE svg PUBLIC "-//W3C//DTD SVG 1.1//EN" "http://www.w3.org/Graphics/SVG/1.1/DTD/svg11.dtd"><svg t="1643041233516" class="icon" viewBox="0 0 1024 1024" version="1.1" xmlns="http://www.w3.org/2000/svg" p-id="1510" xmlns:xlink="http://www.w3.org/1999/xlink" width="32" height="32"><defs><style type="text/css"></style></defs><path d="M511.667 56.667c251.3 0 455 203.7 455 455s-203.7 455-455 455-455-203.7-455-455 203.7-455 455-455z m3.8 633.1c-23.5 0-42.5 19-42.5 42.5s19 42.5 42.5 42.5 42.5-19 42.5-42.5-19-42.5-42.5-42.5z m-149.9-276.5l-0.6 2.7c16.1 5.2 28.2 9.1 36.3 11.7 7.8 2.5 19.6 6.3 35.2 11.4 10.8-58.4 43.8-86 99.1-83 39.9 3.1 62.2 23 66.8 59.9 4.6 32.3-13.8 62.2-55.3 89.9-45.6 31.9-67.9 70.7-66.9 116.2V644.167h71.5v-18.5c-3.1-26.1 10.8-49.2 41.5-69.1 59.9-41.5 89.1-87.6 87.6-138.3-7.7-83-54.5-126.8-140.6-131.4-95.9-3-154 39.1-174.6 126.4z" fill="#000000" p-id="1511"></path></svg>