<?xml version="1.0" standalone="no"?><!DOCTYPE svg PUBLIC "-//W3C//DTD SVG 1.1//EN" "http://www.w3.org/Graphics/SVG/1.1/DTD/svg11.dtd"><svg t="1643041246542" class="icon" viewBox="0 0 1024 1024" version="1.1" xmlns="http://www.w3.org/2000/svg" p-id="1829" xmlns:xlink="http://www.w3.org/1999/xlink" width="32" height="32"><defs><style type="text/css"></style></defs><path d="M780.6 69.4c71 0.3 129.8 57.6 134.8 131.3L954.7 805c2.6 38.9-10.5 77.1-36 105.6s-61.3 44.7-98.8 44.7H204.1c-37.6 0-73.5-16.4-99.1-45.1C79.4 881.5 66.5 843 69.4 804l43.7-604.4c5.5-73.2 64.1-129.9 134.7-130.2h532.8zM677 272.5h-0.6c-18.5 0.3-33.4 15.4-33.4 34v0.5c0 71.8-58.2 130-130 130s-130-58.2-130-130v-0.5c0-18.8-15.2-34-34-34h-0.6c-18.5 0.3-33.4 15.4-33.4 34v0.5c0 109.4 88.6 198 198 198s198-88.6 198-198v-0.5c0-18.8-15.2-34-34-34z" fill="#000000" p-id="1830"></path></svg>