<?xml version="1.0" standalone="no"?><!DOCTYPE svg PUBLIC "-//W3C//DTD SVG 1.1//EN" "http://www.w3.org/Graphics/SVG/1.1/DTD/svg11.dtd"><svg t="1643040720088" class="icon" viewBox="0 0 1024 1024" version="1.1" xmlns="http://www.w3.org/2000/svg" p-id="21006" xmlns:xlink="http://www.w3.org/1999/xlink" width="32" height="32"><defs><style type="text/css"></style></defs><path d="M754.3296 906.6496H267.008c-83.6608 0-151.4496-67.7888-151.4496-151.4496V267.8784c0-83.6608 67.7888-151.4496 151.4496-151.4496h487.3216c83.6608 0 151.4496 67.7888 151.4496 151.4496v487.3216c0 83.6608-67.84 151.4496-151.4496 151.4496z" fill="#FF5D50" p-id="21007"></path><path d="M905.7792 360.5504h-262.656c-83.4048 0-150.9888 67.584-150.9888 150.9888s67.584 150.9888 150.9888 150.9888h262.656V360.5504z" fill="#FFDF99" p-id="21008"></path><path d="M632.6784 511.5392m-51.0976 0a51.0976 51.0976 0 1 0 102.1952 0 51.0976 51.0976 0 1 0-102.1952 0Z" fill="#FF5D50" p-id="21009"></path></svg>