<?xml version="1.0" standalone="no"?><!DOCTYPE svg PUBLIC "-//W3C//DTD SVG 1.1//EN" "http://www.w3.org/Graphics/SVG/1.1/DTD/svg11.dtd"><svg t="1643041237573" class="icon" viewBox="0 0 1024 1024" version="1.1" xmlns="http://www.w3.org/2000/svg" p-id="1668" xmlns:xlink="http://www.w3.org/1999/xlink" width="32" height="32"><defs><style type="text/css"></style></defs><path d="M511.667 90.767c116.2 0 221.4 47.1 297.6 123.3s123.3 181.4 123.3 297.6-47.1 221.4-123.3 297.6-181.4 123.3-297.6 123.3-221.4-47.1-297.6-123.3-123.3-181.4-123.3-297.6 47.1-221.4 123.3-297.6 181.4-123.3 297.6-123.3z m0.5 126.8c-19.9 0-37.9 7.9-51 20.8-13.2 12.9-21.4 30.8-21.7 50.7v146.1H293.667c-19.5 0.2-37.2 8.1-50.2 20.8-13.2 12.9-21.4 30.8-21.7 50.7v1.6c0.1 19.6 8.1 37.4 20.8 50.3 12.9 13.2 30.8 21.4 50.7 21.7h146.1V726.067c0.2 19.5 8.1 37.2 20.8 50.2 12.9 13.2 30.8 21.4 50.7 21.7h1.6c19.6-0.1 37.4-8.1 50.3-20.8 13.2-12.9 21.4-30.8 21.7-50.7v-146.1H730.267c19.5-0.2 37.2-8.1 50.2-20.8 13.2-12.9 21.4-30.8 21.7-50.7v-1.6c-0.1-19.6-8.1-37.4-20.8-50.3-12.9-13.2-30.8-21.4-50.7-21.7h-146.1V289.467c-0.2-19.5-8.1-37.2-20.8-50.2-12.9-13.2-30.8-21.4-50.7-21.7h-0.9z" fill="#000000" p-id="1669"></path><path d="M511.667 966.667c-61.4 0-121-12-177.1-35.8-54.2-22.9-102.8-55.7-144.6-97.5-41.8-41.7-74.6-90.4-97.5-144.6-23.8-56.1-35.8-115.7-35.8-177.1s12-121 35.8-177.1c22.9-54.2 55.7-102.8 97.5-144.6s90.4-74.6 144.6-97.5c56.1-23.8 115.7-35.8 177.1-35.8s121 12 177.1 35.8c54.2 22.9 102.8 55.7 144.6 97.5s74.6 90.4 97.5 144.6c23.8 56.1 35.8 115.7 35.8 177.1s-12 121-35.8 177.1c-22.9 54.2-55.7 102.8-97.5 144.6s-90.4 74.6-144.6 97.5c-56.1 23.8-115.7 35.8-177.1 35.8z m0-841.7c-52.2 0-102.9 10.2-150.5 30.4-46 19.5-87.4 47.4-122.9 82.9-35.5 35.5-63.4 76.9-82.9 122.9-20.2 47.6-30.4 98.3-30.4 150.5s10.2 102.9 30.4 150.5c19.5 46 47.4 87.4 82.9 122.9 35.5 35.5 76.9 63.4 122.9 82.9 47.7 20.2 98.3 30.4 150.5 30.4 103.3 0 200.4-40.2 273.5-113.3 35.5-35.5 63.4-76.9 82.9-122.9 20.2-47.7 30.4-98.3 30.4-150.5s-10.2-102.9-30.4-150.5c-19.5-46-47.4-87.4-82.9-122.9-73.1-73.1-170.2-113.3-273.5-113.3z m0.1 707h-1.3c-28.3-0.4-54.7-11.7-74.5-31.9-19.5-19.8-30.4-46-30.6-73.8v-111.9h-112.4c-28.2-0.4-54.7-11.7-74.5-31.9-19.5-19.9-30.4-46.2-30.6-74v-2.3c0.4-28.3 11.7-54.7 31.9-74.5 19.8-19.5 46-30.4 73.8-30.6h111.9v-112.4c0.4-28.2 11.7-54.7 31.9-74.5 20.1-19.8 46.6-30.6 74.8-30.6h1.5c28.2 0.4 54.7 11.7 74.5 31.9 19.5 19.8 30.4 46 30.6 73.8v111.9h112.4c28.3 0.4 54.7 11.7 74.5 31.9 19.5 19.9 30.4 46.2 30.6 74v2.3c-0.4 28.3-11.7 54.7-31.9 74.5-19.8 19.5-46 30.4-73.8 30.6h-111.9v112.4c-0.4 28.2-11.7 54.7-31.9 74.5-19.9 19.5-46.2 30.4-74 30.6h-1z m-0.4-68.2h1c10-0.1 19.4-4 26.6-11 7.2-7.1 11.3-16.6 11.5-26.8V546.167h179.6c10-0.1 19.4-4 26.5-11 7.2-7.1 11.3-16.6 11.5-26.7v-1c-0.1-10-4-19.4-11-26.6-7.1-7.2-16.6-11.3-26.7-11.5H550.567v-179.6c-0.1-10-4-19.4-11-26.5-7.1-7.2-16.6-11.3-26.7-11.5h-0.6c-10.1 0-19.7 3.9-26.9 11-7.2 7.1-11.3 16.6-11.5 26.7V469.267h-179.6c-10 0.1-19.4 4-26.5 11-7.2 7.1-11.3 16.6-11.5 26.8v1c0.1 10 4 19.4 11 26.6 7.1 7.2 16.6 11.3 26.8 11.5H473.867v179.6c0.1 10 4 19.4 11 26.5 6.9 7.2 16.4 11.3 26.5 11.5z" fill="#000000" p-id="1670"></path></svg>