<?xml version="1.0" standalone="no"?><!DOCTYPE svg PUBLIC "-//W3C//DTD SVG 1.1//EN" "http://www.w3.org/Graphics/SVG/1.1/DTD/svg11.dtd"><svg t="1643041221729" class="icon" viewBox="0 0 1024 1024" version="1.1" xmlns="http://www.w3.org/2000/svg" p-id="1190" xmlns:xlink="http://www.w3.org/1999/xlink" width="32" height="32"><defs><style type="text/css"></style></defs><path d="M512 42.7c259.2 0 469.3 210.1 469.3 469.3S771.2 981.3 512 981.3 42.7 771.2 42.7 512 252.8 42.7 512 42.7z m0.3 644.9c-25.9 0-46.9 21-46.9 46.9s21 46.9 46.9 46.9 46.9-21 46.9-46.9-21-46.9-46.9-46.9z m0-432c-25.9 0-46.9 21-46.9 46.9v290.1c0 25.9 21 46.9 46.9 46.9s46.9-21 46.9-46.9V302.5c0-25.9-21-46.9-46.9-46.9z" fill="#000000" p-id="1191"></path></svg>