<?xml version="1.0" standalone="no"?><!DOCTYPE svg PUBLIC "-//W3C//DTD SVG 1.1//EN" "http://www.w3.org/Graphics/SVG/1.1/DTD/svg11.dtd"><svg t="1643040853865" class="icon" viewBox="0 0 1026 1024" version="1.1" xmlns="http://www.w3.org/2000/svg" p-id="4400" xmlns:xlink="http://www.w3.org/1999/xlink" width="32.0625" height="32"><defs><style type="text/css"></style></defs><path d="M688.428118 1024a276.701049 276.701049 0 0 1-195.890022-81.322489l-409.169758-409.169758A277.212511 277.212511 0 0 1 51.14622 178.041525L140.652104 46.084278A102.292439 102.292439 0 0 1 299.716848 31.251875l186.683702 187.195164a102.292439 102.292439 0 0 1 15.343866 127.354087L463.896213 410.245363l153.438659 153.438659 62.398388-37.848202a102.292439 102.292439 0 0 1 127.354088 15.343866l186.683702 186.683702a102.292439 102.292439 0 0 1-14.320942 159.064743L845.958475 972.85378a276.701049 276.701049 0 0 1-157.530357 51.14622z m-460.315978-920.631955L133.491634 235.836754A174.920072 174.920072 0 0 0 153.438659 461.391583l409.169758 409.169758a174.408609 174.408609 0 0 0 222.997518 19.947025L920.631955 799.468095l-186.683702-189.241013L634.724587 665.976462a51.14622 51.14622 0 0 1-62.398388-7.671933L363.649622 452.185263A51.14622 51.14622 0 0 1 358.023538 389.275413L414.28438 292.609058z" fill="#000000" p-id="4401"></path></svg>